<svg viewBox="10 10 76 76" width="96" height="96" role="img" aria-label="LeanLeap" xmlns="http://www.w3.org/2000/svg">
  <defs>
    <linearGradient id="ll-ai-tile" x1="14" y1="86" x2="82" y2="10" gradientUnits="userSpaceOnUse">
      <stop offset="0" stop-color="#d86649" />
      <stop offset="1" stop-color="#e77d56" />
    </linearGradient>
  </defs>
  <rect x="10" y="10" width="76" height="76" rx="17" fill="url(#ll-ai-tile)" />
  <g fill="none" stroke="#ffffff" stroke-width="7.6" stroke-linecap="round" stroke-linejoin="round">
    <path d="M48 21v15.2c0 2.7 1.4 5.1 3.6 6.7L64 50.5" />
    <path d="M48 21v15.2c0 2.7 1.4 5.1 3.6 6.7L64 50.5" transform="rotate(60 48 48)" />
    <path d="M48 21v15.2c0 2.7 1.4 5.1 3.6 6.7L64 50.5" transform="rotate(120 48 48)" />
    <path d="M48 21v15.2c0 2.7 1.4 5.1 3.6 6.7L64 50.5" transform="rotate(180 48 48)" />
    <path d="M48 21v15.2c0 2.7 1.4 5.1 3.6 6.7L64 50.5" transform="rotate(240 48 48)" />
    <path d="M48 21v15.2c0 2.7 1.4 5.1 3.6 6.7L64 50.5" transform="rotate(300 48 48)" />
  </g>
  <circle cx="48" cy="48" r="7.3" fill="url(#ll-ai-tile)" />
</svg>
